<?xml version="1.0" encoding="utf-8" standalone="no"?>
<!DOCTYPE svg PUBLIC "-//W3C//DTD SVG 1.1//EN"
  "http://www.w3.org/Graphics/SVG/1.1/DTD/svg11.dtd">
<svg xmlns:xlink="http://www.w3.org/1999/xlink" width="936pt" height="432pt" viewBox="0 0 936 432" xmlns="http://www.w3.org/2000/svg" version="1.1">
 <metadata>
  <rdf:RDF xmlns:dc="http://purl.org/dc/elements/1.1/" xmlns:cc="http://creativecommons.org/ns#" xmlns:rdf="http://www.w3.org/1999/02/22-rdf-syntax-ns#">
   <cc:Work>
    <dc:type rdf:resource="http://purl.org/dc/dcmitype/StillImage"/>
    <dc:date>2026-05-20T23:00:04.230134</dc:date>
    <dc:format>image/svg+xml</dc:format>
    <dc:creator>
     <cc:Agent>
      <dc:title>Matplotlib v3.10.6, https://matplotlib.org/</dc:title>
     </cc:Agent>
    </dc:creator>
   </cc:Work>
  </rdf:RDF>
 </metadata>
 <defs>
  <style type="text/css">*{stroke-linejoin: round; stroke-linecap: butt}</style>
 </defs>
 <g id="figure_1">
  <g id="patch_1">
   <path d="M 0 432 
L 936 432 
L 936 0 
L 0 0 
z
" style="fill: #ffffff"/>
  </g>
  <g id="axes_1">
   <g id="patch_2">
    <path d="M 47.72 364.473863 
L 925.2 364.473863 
L 925.2 26.88 
L 47.72 26.88 
z
" style="fill: #ffffff"/>
   </g>
   <g id="matplotlib.axis_1">
    <g id="xtick_1">
     <g id="line2d_1">
      <defs>
       <path id="m41c99f8d21" d="M 0 0 
L 0 3.5 
" style="stroke: #000000; stroke-width: 0.8"/>
      </defs>
      <g>
       <use xlink:href="#m41c99f8d21" x="103.094951" y="364.473863" style="stroke: #000000; stroke-width: 0.8"/>
      </g>
     </g>
     <g id="text_1">
      <!-- sw -->
      <g transform="translate(92.157998 386.313162) rotate(-45) scale(0.1 -0.1)">
       <defs>
        <path id="DejaVuSans-73" d="M 2834 3397 
L 2834 2853 
Q 2591 2978 2328 3040 
Q 2066 3103 1784 3103 
Q 1356 3103 1142 2972 
Q 928 2841 928 2578 
Q 928 2378 1081 2264 
Q 1234 2150 1697 2047 
L 1894 2003 
Q 2506 1872 2764 1633 
Q 3022 1394 3022 966 
Q 3022 478 2636 193 
Q 2250 -91 1575 -91 
Q 1294 -91 989 -36 
Q 684 19 347 128 
L 347 722 
Q 666 556 975 473 
Q 1284 391 1588 391 
Q 1994 391 2212 530 
Q 2431 669 2431 922 
Q 2431 1156 2273 1281 
Q 2116 1406 1581 1522 
L 1381 1569 
Q 847 1681 609 1914 
Q 372 2147 372 2553 
Q 372 3047 722 3315 
Q 1072 3584 1716 3584 
Q 2034 3584 2315 3537 
Q 2597 3491 2834 3397 
z
" transform="scale(0.015625)"/>
        <path id="DejaVuSans-77" d="M 269 3500 
L 844 3500 
L 1563 769 
L 2278 3500 
L 2956 3500 
L 3675 769 
L 4391 3500 
L 4966 3500 
L 4050 0 
L 3372 0 
L 2619 2869 
L 1863 0 
L 1184 0 
L 269 3500 
z
" transform="scale(0.015625)"/>
       </defs>
       <use xlink:href="#DejaVuSans-73"/>
       <use xlink:href="#DejaVuSans-77" transform="translate(52.099609 0)"/>
      </g>
     </g>
    </g>
    <g id="xtick_2">
     <g id="line2d_2">
      <g>
       <use xlink:href="#m41c99f8d21" x="188.287184" y="364.473863" style="stroke: #000000; stroke-width: 0.8"/>
      </g>
     </g>
     <g id="text_2">
      <!-- sw_crit -->
      <g transform="translate(162.086669 401.380061) rotate(-45) scale(0.1 -0.1)">
       <defs>
        <path id="DejaVuSans-5f" d="M 3263 -1063 
L 3263 -1509 
L -63 -1509 
L -63 -1063 
L 3263 -1063 
z
" transform="scale(0.015625)"/>
        <path id="DejaVuSans-63" d="M 3122 3366 
L 3122 2828 
Q 2878 2963 2633 3030 
Q 2388 3097 2138 3097 
Q 1578 3097 1268 2742 
Q 959 2388 959 1747 
Q 959 1106 1268 751 
Q 1578 397 2138 397 
Q 2388 397 2633 464 
Q 2878 531 3122 666 
L 3122 134 
Q 2881 22 2623 -34 
Q 2366 -91 2075 -91 
Q 1284 -91 818 406 
Q 353 903 353 1747 
Q 353 2603 823 3093 
Q 1294 3584 2113 3584 
Q 2378 3584 2631 3529 
Q 2884 3475 3122 3366 
z
" transform="scale(0.015625)"/>
        <path id="DejaVuSans-72" d="M 2631 2963 
Q 2534 3019 2420 3045 
Q 2306 3072 2169 3072 
Q 1681 3072 1420 2755 
Q 1159 2438 1159 1844 
L 1159 0 
L 581 0 
L 581 3500 
L 1159 3500 
L 1159 2956 
Q 1341 3275 1631 3429 
Q 1922 3584 2338 3584 
Q 2397 3584 2469 3576 
Q 2541 3569 2628 3553 
L 2631 2963 
z
" transform="scale(0.015625)"/>
        <path id="DejaVuSans-69" d="M 603 3500 
L 1178 3500 
L 1178 0 
L 603 0 
L 603 3500 
z
M 603 4863 
L 1178 4863 
L 1178 4134 
L 603 4134 
L 603 4863 
z
" transform="scale(0.015625)"/>
        <path id="DejaVuSans-74" d="M 1172 4494 
L 1172 3500 
L 2356 3500 
L 2356 3053 
L 1172 3053 
L 1172 1153 
Q 1172 725 1289 603 
Q 1406 481 1766 481 
L 2356 481 
L 2356 0 
L 1766 0 
Q 1100 0 847 248 
Q 594 497 594 1153 
L 594 3053 
L 172 3053 
L 172 3500 
L 594 3500 
L 594 4494 
L 1172 4494 
z
" transform="scale(0.015625)"/>
       </defs>
       <use xlink:href="#DejaVuSans-73"/>
       <use xlink:href="#DejaVuSans-77" transform="translate(52.099609 0)"/>
       <use xlink:href="#DejaVuSans-5f" transform="translate(133.886719 0)"/>
       <use xlink:href="#DejaVuSans-63" transform="translate(183.886719 0)"/>
       <use xlink:href="#DejaVuSans-72" transform="translate(238.867188 0)"/>
       <use xlink:href="#DejaVuSans-69" transform="translate(279.980469 0)"/>
       <use xlink:href="#DejaVuSans-74" transform="translate(307.763672 0)"/>
      </g>
     </g>
    </g>
    <g id="xtick_3">
     <g id="line2d_3">
      <g>
       <use xlink:href="#m41c99f8d21" x="273.479417" y="364.473863" style="stroke: #000000; stroke-width: 0.8"/>
      </g>
     </g>
     <g id="text_3">
      <!-- th -->
      <g transform="translate(264.755488 384.100139) rotate(-45) scale(0.1 -0.1)">
       <defs>
        <path id="DejaVuSans-68" d="M 3513 2113 
L 3513 0 
L 2938 0 
L 2938 2094 
Q 2938 2591 2744 2837 
Q 2550 3084 2163 3084 
Q 1697 3084 1428 2787 
Q 1159 2491 1159 1978 
L 1159 0 
L 581 0 
L 581 4863 
L 1159 4863 
L 1159 2956 
Q 1366 3272 1645 3428 
Q 1925 3584 2291 3584 
Q 2894 3584 3203 3211 
Q 3513 2838 3513 2113 
z
" transform="scale(0.015625)"/>
       </defs>
       <use xlink:href="#DejaVuSans-74"/>
       <use xlink:href="#DejaVuSans-68" transform="translate(39.208984 0)"/>
      </g>
     </g>
    </g>
    <g id="xtick_4">
     <g id="line2d_4">
      <g>
       <use xlink:href="#m41c99f8d21" x="358.67165" y="364.473863" style="stroke: #000000; stroke-width: 0.8"/>
      </g>
     </g>
     <g id="text_4">
      <!-- th_crit -->
      <g transform="translate(334.684158 399.167037) rotate(-45) scale(0.1 -0.1)">
       <use xlink:href="#DejaVuSans-74"/>
       <use xlink:href="#DejaVuSans-68" transform="translate(39.208984 0)"/>
       <use xlink:href="#DejaVuSans-5f" transform="translate(102.587891 0)"/>
       <use xlink:href="#DejaVuSans-63" transform="translate(152.587891 0)"/>
       <use xlink:href="#DejaVuSans-72" transform="translate(207.568359 0)"/>
       <use xlink:href="#DejaVuSans-69" transform="translate(248.681641 0)"/>
       <use xlink:href="#DejaVuSans-74" transform="translate(276.464844 0)"/>
      </g>
     </g>
    </g>
    <g id="xtick_5">
     <g id="line2d_5">
      <g>
       <use xlink:href="#m41c99f8d21" x="443.863883" y="364.473863" style="stroke: #000000; stroke-width: 0.8"/>
      </g>
     </g>
     <g id="text_5">
      <!-- vi -->
      <g transform="translate(436.243703 382.996389) rotate(-45) scale(0.1 -0.1)">
       <defs>
        <path id="DejaVuSans-76" d="M 191 3500 
L 800 3500 
L 1894 563 
L 2988 3500 
L 3597 3500 
L 2284 0 
L 1503 0 
L 191 3500 
z
" transform="scale(0.015625)"/>
       </defs>
       <use xlink:href="#DejaVuSans-76"/>
       <use xlink:href="#DejaVuSans-69" transform="translate(59.179688 0)"/>
      </g>
     </g>
    </g>
    <g id="xtick_6">
     <g id="line2d_6">
      <g>
       <use xlink:href="#m41c99f8d21" x="529.056117" y="364.473863" style="stroke: #000000; stroke-width: 0.8"/>
      </g>
     </g>
     <g id="text_6">
      <!-- vi_crit -->
      <g transform="translate(506.172373 398.063288) rotate(-45) scale(0.1 -0.1)">
       <use xlink:href="#DejaVuSans-76"/>
       <use xlink:href="#DejaVuSans-69" transform="translate(59.179688 0)"/>
       <use xlink:href="#DejaVuSans-5f" transform="translate(86.962891 0)"/>
       <use xlink:href="#DejaVuSans-63" transform="translate(136.962891 0)"/>
       <use xlink:href="#DejaVuSans-72" transform="translate(191.943359 0)"/>
       <use xlink:href="#DejaVuSans-69" transform="translate(233.056641 0)"/>
       <use xlink:href="#DejaVuSans-74" transform="translate(260.839844 0)"/>
      </g>
     </g>
    </g>
    <g id="xtick_7">
     <g id="line2d_7">
      <g>
       <use xlink:href="#m41c99f8d21" x="614.24835" y="364.473863" style="stroke: #000000; stroke-width: 0.8"/>
      </g>
     </g>
     <g id="text_7">
      <!-- eng -->
      <g transform="translate(599.45656 390.167999) rotate(-45) scale(0.1 -0.1)">
       <defs>
        <path id="DejaVuSans-65" d="M 3597 1894 
L 3597 1613 
L 953 1613 
Q 991 1019 1311 708 
Q 1631 397 2203 397 
Q 2534 397 2845 478 
Q 3156 559 3463 722 
L 3463 178 
Q 3153 47 2828 -22 
Q 2503 -91 2169 -91 
Q 1331 -91 842 396 
Q 353 884 353 1716 
Q 353 2575 817 3079 
Q 1281 3584 2069 3584 
Q 2775 3584 3186 3129 
Q 3597 2675 3597 1894 
z
M 3022 2063 
Q 3016 2534 2758 2815 
Q 2500 3097 2075 3097 
Q 1594 3097 1305 2825 
Q 1016 2553 972 2059 
L 3022 2063 
z
" transform="scale(0.015625)"/>
        <path id="DejaVuSans-6e" d="M 3513 2113 
L 3513 0 
L 2938 0 
L 2938 2094 
Q 2938 2591 2744 2837 
Q 2550 3084 2163 3084 
Q 1697 3084 1428 2787 
Q 1159 2491 1159 1978 
L 1159 0 
L 581 0 
L 581 3500 
L 1159 3500 
L 1159 2956 
Q 1366 3272 1645 3428 
Q 1925 3584 2291 3584 
Q 2894 3584 3203 3211 
Q 3513 2838 3513 2113 
z
" transform="scale(0.015625)"/>
        <path id="DejaVuSans-67" d="M 2906 1791 
Q 2906 2416 2648 2759 
Q 2391 3103 1925 3103 
Q 1463 3103 1205 2759 
Q 947 2416 947 1791 
Q 947 1169 1205 825 
Q 1463 481 1925 481 
Q 2391 481 2648 825 
Q 2906 1169 2906 1791 
z
M 3481 434 
Q 3481 -459 3084 -895 
Q 2688 -1331 1869 -1331 
Q 1566 -1331 1297 -1286 
Q 1028 -1241 775 -1147 
L 775 -588 
Q 1028 -725 1275 -790 
Q 1522 -856 1778 -856 
Q 2344 -856 2625 -561 
Q 2906 -266 2906 331 
L 2906 616 
Q 2728 306 2450 153 
Q 2172 0 1784 0 
Q 1141 0 747 490 
Q 353 981 353 1791 
Q 353 2603 747 3093 
Q 1141 3584 1784 3584 
Q 2172 3584 2450 3431 
Q 2728 3278 2906 2969 
L 2906 3500 
L 3481 3500 
L 3481 434 
z
" transform="scale(0.015625)"/>
       </defs>
       <use xlink:href="#DejaVuSans-65"/>
       <use xlink:href="#DejaVuSans-6e" transform="translate(61.523438 0)"/>
       <use xlink:href="#DejaVuSans-67" transform="translate(124.902344 0)"/>
      </g>
     </g>
    </g>
    <g id="xtick_8">
     <g id="line2d_8">
      <g>
       <use xlink:href="#m41c99f8d21" x="699.440583" y="364.473863" style="stroke: #000000; stroke-width: 0.8"/>
      </g>
     </g>
     <g id="text_8">
      <!-- eng_crit -->
      <g transform="translate(669.38523 405.234898) rotate(-45) scale(0.1 -0.1)">
       <use xlink:href="#DejaVuSans-65"/>
       <use xlink:href="#DejaVuSans-6e" transform="translate(61.523438 0)"/>
       <use xlink:href="#DejaVuSans-67" transform="translate(124.902344 0)"/>
       <use xlink:href="#DejaVuSans-5f" transform="translate(188.378906 0)"/>
       <use xlink:href="#DejaVuSans-63" transform="translate(238.378906 0)"/>
       <use xlink:href="#DejaVuSans-72" transform="translate(293.359375 0)"/>
       <use xlink:href="#DejaVuSans-69" transform="translate(334.472656 0)"/>
       <use xlink:href="#DejaVuSans-74" transform="translate(362.255859 0)"/>
      </g>
     </g>
    </g>
    <g id="xtick_9">
     <g id="line2d_9">
      <g>
       <use xlink:href="#m41c99f8d21" x="784.632816" y="364.473863" style="stroke: #000000; stroke-width: 0.8"/>
      </g>
     </g>
     <g id="text_9">
      <!-- ru -->
      <g transform="translate(775.774093 384.234931) rotate(-45) scale(0.1 -0.1)">
       <defs>
        <path id="DejaVuSans-75" d="M 544 1381 
L 544 3500 
L 1119 3500 
L 1119 1403 
Q 1119 906 1312 657 
Q 1506 409 1894 409 
Q 2359 409 2629 706 
Q 2900 1003 2900 1516 
L 2900 3500 
L 3475 3500 
L 3475 0 
L 2900 0 
L 2900 538 
Q 2691 219 2414 64 
Q 2138 -91 1772 -91 
Q 1169 -91 856 284 
Q 544 659 544 1381 
z
M 1991 3584 
L 1991 3584 
z
" transform="scale(0.015625)"/>
       </defs>
       <use xlink:href="#DejaVuSans-72"/>
       <use xlink:href="#DejaVuSans-75" transform="translate(41.113281 0)"/>
      </g>
     </g>
    </g>
    <g id="xtick_10">
     <g id="line2d_10">
      <g>
       <use xlink:href="#m41c99f8d21" x="869.825049" y="364.473863" style="stroke: #000000; stroke-width: 0.8"/>
      </g>
     </g>
     <g id="text_10">
      <!-- ru_crit -->
      <g transform="translate(845.702764 399.30183) rotate(-45) scale(0.1 -0.1)">
       <use xlink:href="#DejaVuSans-72"/>
       <use xlink:href="#DejaVuSans-75" transform="translate(41.113281 0)"/>
       <use xlink:href="#DejaVuSans-5f" transform="translate(104.492188 0)"/>
       <use xlink:href="#DejaVuSans-63" transform="translate(154.492188 0)"/>
       <use xlink:href="#DejaVuSans-72" transform="translate(209.472656 0)"/>
       <use xlink:href="#DejaVuSans-69" transform="translate(250.585938 0)"/>
       <use xlink:href="#DejaVuSans-74" transform="translate(278.369141 0)"/>
      </g>
     </g>
    </g>
    <g id="text_11">
     <!-- Language -->
     <g transform="translate(461.783438 418.50056) scale(0.1 -0.1)">
      <defs>
       <path id="DejaVuSans-4c" d="M 628 4666 
L 1259 4666 
L 1259 531 
L 3531 531 
L 3531 0 
L 628 0 
L 628 4666 
z
" transform="scale(0.015625)"/>
       <path id="DejaVuSans-61" d="M 2194 1759 
Q 1497 1759 1228 1600 
Q 959 1441 959 1056 
Q 959 750 1161 570 
Q 1363 391 1709 391 
Q 2188 391 2477 730 
Q 2766 1069 2766 1631 
L 2766 1759 
L 2194 1759 
z
M 3341 1997 
L 3341 0 
L 2766 0 
L 2766 531 
Q 2569 213 2275 61 
Q 1981 -91 1556 -91 
Q 1019 -91 701 211 
Q 384 513 384 1019 
Q 384 1609 779 1909 
Q 1175 2209 1959 2209 
L 2766 2209 
L 2766 2266 
Q 2766 2663 2505 2880 
Q 2244 3097 1772 3097 
Q 1472 3097 1187 3025 
Q 903 2953 641 2809 
L 641 3341 
Q 956 3463 1253 3523 
Q 1550 3584 1831 3584 
Q 2591 3584 2966 3190 
Q 3341 2797 3341 1997 
z
" transform="scale(0.015625)"/>
      </defs>
      <use xlink:href="#DejaVuSans-4c"/>
      <use xlink:href="#DejaVuSans-61" transform="translate(55.712891 0)"/>
      <use xlink:href="#DejaVuSans-6e" transform="translate(116.992188 0)"/>
      <use xlink:href="#DejaVuSans-67" transform="translate(180.371094 0)"/>
      <use xlink:href="#DejaVuSans-75" transform="translate(243.847656 0)"/>
      <use xlink:href="#DejaVuSans-61" transform="translate(307.226562 0)"/>
      <use xlink:href="#DejaVuSans-67" transform="translate(368.505859 0)"/>
      <use xlink:href="#DejaVuSans-65" transform="translate(431.982422 0)"/>
     </g>
    </g>
   </g>
   <g id="matplotlib.axis_2">
    <g id="ytick_1">
     <g id="line2d_11">
      <path d="M 47.72 364.473863 
L 925.2 364.473863 
" clip-path="url(#pf19172d2fc)" style="fill: none; stroke-dasharray: 2.59,1.12; stroke-dashoffset: 0; stroke: #b0b0b0; stroke-opacity: 0.6; stroke-width: 0.7"/>
     </g>
     <g id="line2d_12">
      <defs>
       <path id="mcad52932f7" d="M 0 0 
L -3.5 0 
" style="stroke: #000000; stroke-width: 0.8"/>
      </defs>
      <g>
       <use xlink:href="#mcad52932f7" x="47.72" y="364.473863" style="stroke: #000000; stroke-width: 0.8"/>
      </g>
     </g>
     <g id="text_12">
      <!-- 0.0 -->
      <g transform="translate(24.816875 368.273082) scale(0.1 -0.1)">
       <defs>
        <path id="DejaVuSans-30" d="M 2034 4250 
Q 1547 4250 1301 3770 
Q 1056 3291 1056 2328 
Q 1056 1369 1301 889 
Q 1547 409 2034 409 
Q 2525 409 2770 889 
Q 3016 1369 3016 2328 
Q 3016 3291 2770 3770 
Q 2525 4250 2034 4250 
z
M 2034 4750 
Q 2819 4750 3233 4129 
Q 3647 3509 3647 2328 
Q 3647 1150 3233 529 
Q 2819 -91 2034 -91 
Q 1250 -91 836 529 
Q 422 1150 422 2328 
Q 422 3509 836 4129 
Q 1250 4750 2034 4750 
z
" transform="scale(0.015625)"/>
        <path id="DejaVuSans-2e" d="M 684 794 
L 1344 794 
L 1344 0 
L 684 0 
L 684 794 
z
" transform="scale(0.015625)"/>
       </defs>
       <use xlink:href="#DejaVuSans-30"/>
       <use xlink:href="#DejaVuSans-2e" transform="translate(63.623047 0)"/>
       <use xlink:href="#DejaVuSans-30" transform="translate(95.410156 0)"/>
      </g>
     </g>
    </g>
    <g id="ytick_2">
     <g id="line2d_13">
      <path d="M 47.72 311.987801 
L 925.2 311.987801 
" clip-path="url(#pf19172d2fc)" style="fill: none; stroke-dasharray: 2.59,1.12; stroke-dashoffset: 0; stroke: #b0b0b0; stroke-opacity: 0.6; stroke-width: 0.7"/>
     </g>
     <g id="line2d_14">
      <g>
       <use xlink:href="#mcad52932f7" x="47.72" y="311.987801" style="stroke: #000000; stroke-width: 0.8"/>
      </g>
     </g>
     <g id="text_13">
      <!-- 0.2 -->
      <g transform="translate(24.816875 315.78702) scale(0.1 -0.1)">
       <defs>
        <path id="DejaVuSans-32" d="M 1228 531 
L 3431 531 
L 3431 0 
L 469 0 
L 469 531 
Q 828 903 1448 1529 
Q 2069 2156 2228 2338 
Q 2531 2678 2651 2914 
Q 2772 3150 2772 3378 
Q 2772 3750 2511 3984 
Q 2250 4219 1831 4219 
Q 1534 4219 1204 4116 
Q 875 4013 500 3803 
L 500 4441 
Q 881 4594 1212 4672 
Q 1544 4750 1819 4750 
Q 2544 4750 2975 4387 
Q 3406 4025 3406 3419 
Q 3406 3131 3298 2873 
Q 3191 2616 2906 2266 
Q 2828 2175 2409 1742 
Q 1991 1309 1228 531 
z
" transform="scale(0.015625)"/>
       </defs>
       <use xlink:href="#DejaVuSans-30"/>
       <use xlink:href="#DejaVuSans-2e" transform="translate(63.623047 0)"/>
       <use xlink:href="#DejaVuSans-32" transform="translate(95.410156 0)"/>
      </g>
     </g>
    </g>
    <g id="ytick_3">
     <g id="line2d_15">
      <path d="M 47.72 259.501739 
L 925.2 259.501739 
" clip-path="url(#pf19172d2fc)" style="fill: none; stroke-dasharray: 2.59,1.12; stroke-dashoffset: 0; stroke: #b0b0b0; stroke-opacity: 0.6; stroke-width: 0.7"/>
     </g>
     <g id="line2d_16">
      <g>
       <use xlink:href="#mcad52932f7" x="47.72" y="259.501739" style="stroke: #000000; stroke-width: 0.8"/>
      </g>
     </g>
     <g id="text_14">
      <!-- 0.4 -->
      <g transform="translate(24.816875 263.300958) scale(0.1 -0.1)">
       <defs>
        <path id="DejaVuSans-34" d="M 2419 4116 
L 825 1625 
L 2419 1625 
L 2419 4116 
z
M 2253 4666 
L 3047 4666 
L 3047 1625 
L 3713 1625 
L 3713 1100 
L 3047 1100 
L 3047 0 
L 2419 0 
L 2419 1100 
L 313 1100 
L 313 1709 
L 2253 4666 
z
" transform="scale(0.015625)"/>
       </defs>
       <use xlink:href="#DejaVuSans-30"/>
       <use xlink:href="#DejaVuSans-2e" transform="translate(63.623047 0)"/>
       <use xlink:href="#DejaVuSans-34" transform="translate(95.410156 0)"/>
      </g>
     </g>
    </g>
    <g id="ytick_4">
     <g id="line2d_17">
      <path d="M 47.72 207.015677 
L 925.2 207.015677 
" clip-path="url(#pf19172d2fc)" style="fill: none; stroke-dasharray: 2.59,1.12; stroke-dashoffset: 0; stroke: #b0b0b0; stroke-opacity: 0.6; stroke-width: 0.7"/>
     </g>
     <g id="line2d_18">
      <g>
       <use xlink:href="#mcad52932f7" x="47.72" y="207.015677" style="stroke: #000000; stroke-width: 0.8"/>
      </g>
     </g>
     <g id="text_15">
      <!-- 0.6 -->
      <g transform="translate(24.816875 210.814896) scale(0.1 -0.1)">
       <defs>
        <path id="DejaVuSans-36" d="M 2113 2584 
Q 1688 2584 1439 2293 
Q 1191 2003 1191 1497 
Q 1191 994 1439 701 
Q 1688 409 2113 409 
Q 2538 409 2786 701 
Q 3034 994 3034 1497 
Q 3034 2003 2786 2293 
Q 2538 2584 2113 2584 
z
M 3366 4563 
L 3366 3988 
Q 3128 4100 2886 4159 
Q 2644 4219 2406 4219 
Q 1781 4219 1451 3797 
Q 1122 3375 1075 2522 
Q 1259 2794 1537 2939 
Q 1816 3084 2150 3084 
Q 2853 3084 3261 2657 
Q 3669 2231 3669 1497 
Q 3669 778 3244 343 
Q 2819 -91 2113 -91 
Q 1303 -91 875 529 
Q 447 1150 447 2328 
Q 447 3434 972 4092 
Q 1497 4750 2381 4750 
Q 2619 4750 2861 4703 
Q 3103 4656 3366 4563 
z
" transform="scale(0.015625)"/>
       </defs>
       <use xlink:href="#DejaVuSans-30"/>
       <use xlink:href="#DejaVuSans-2e" transform="translate(63.623047 0)"/>
       <use xlink:href="#DejaVuSans-36" transform="translate(95.410156 0)"/>
      </g>
     </g>
    </g>
    <g id="ytick_5">
     <g id="line2d_19">
      <path d="M 47.72 154.529615 
L 925.2 154.529615 
" clip-path="url(#pf19172d2fc)" style="fill: none; stroke-dasharray: 2.59,1.12; stroke-dashoffset: 0; stroke: #b0b0b0; stroke-opacity: 0.6; stroke-width: 0.7"/>
     </g>
     <g id="line2d_20">
      <g>
       <use xlink:href="#mcad52932f7" x="47.72" y="154.529615" style="stroke: #000000; stroke-width: 0.8"/>
      </g>
     </g>
     <g id="text_16">
      <!-- 0.8 -->
      <g transform="translate(24.816875 158.328834) scale(0.1 -0.1)">
       <defs>
        <path id="DejaVuSans-38" d="M 2034 2216 
Q 1584 2216 1326 1975 
Q 1069 1734 1069 1313 
Q 1069 891 1326 650 
Q 1584 409 2034 409 
Q 2484 409 2743 651 
Q 3003 894 3003 1313 
Q 3003 1734 2745 1975 
Q 2488 2216 2034 2216 
z
M 1403 2484 
Q 997 2584 770 2862 
Q 544 3141 544 3541 
Q 544 4100 942 4425 
Q 1341 4750 2034 4750 
Q 2731 4750 3128 4425 
Q 3525 4100 3525 3541 
Q 3525 3141 3298 2862 
Q 3072 2584 2669 2484 
Q 3125 2378 3379 2068 
Q 3634 1759 3634 1313 
Q 3634 634 3220 271 
Q 2806 -91 2034 -91 
Q 1263 -91 848 271 
Q 434 634 434 1313 
Q 434 1759 690 2068 
Q 947 2378 1403 2484 
z
M 1172 3481 
Q 1172 3119 1398 2916 
Q 1625 2713 2034 2713 
Q 2441 2713 2670 2916 
Q 2900 3119 2900 3481 
Q 2900 3844 2670 4047 
Q 2441 4250 2034 4250 
Q 1625 4250 1398 4047 
Q 1172 3844 1172 3481 
z
" transform="scale(0.015625)"/>
       </defs>
       <use xlink:href="#DejaVuSans-30"/>
       <use xlink:href="#DejaVuSans-2e" transform="translate(63.623047 0)"/>
       <use xlink:href="#DejaVuSans-38" transform="translate(95.410156 0)"/>
      </g>
     </g>
    </g>
    <g id="ytick_6">
     <g id="line2d_21">
      <path d="M 47.72 102.043553 
L 925.2 102.043553 
" clip-path="url(#pf19172d2fc)" style="fill: none; stroke-dasharray: 2.59,1.12; stroke-dashoffset: 0; stroke: #b0b0b0; stroke-opacity: 0.6; stroke-width: 0.7"/>
     </g>
     <g id="line2d_22">
      <g>
       <use xlink:href="#mcad52932f7" x="47.72" y="102.043553" style="stroke: #000000; stroke-width: 0.8"/>
      </g>
     </g>
     <g id="text_17">
      <!-- 1.0 -->
      <g transform="translate(24.816875 105.842772) scale(0.1 -0.1)">
       <defs>
        <path id="DejaVuSans-31" d="M 794 531 
L 1825 531 
L 1825 4091 
L 703 3866 
L 703 4441 
L 1819 4666 
L 2450 4666 
L 2450 531 
L 3481 531 
L 3481 0 
L 794 0 
L 794 531 
z
" transform="scale(0.015625)"/>
       </defs>
       <use xlink:href="#DejaVuSans-31"/>
       <use xlink:href="#DejaVuSans-2e" transform="translate(63.623047 0)"/>
       <use xlink:href="#DejaVuSans-30" transform="translate(95.410156 0)"/>
      </g>
     </g>
    </g>
    <g id="ytick_7">
     <g id="line2d_23">
      <path d="M 47.72 49.557491 
L 925.2 49.557491 
" clip-path="url(#pf19172d2fc)" style="fill: none; stroke-dasharray: 2.59,1.12; stroke-dashoffset: 0; stroke: #b0b0b0; stroke-opacity: 0.6; stroke-width: 0.7"/>
     </g>
     <g id="line2d_24">
      <g>
       <use xlink:href="#mcad52932f7" x="47.72" y="49.557491" style="stroke: #000000; stroke-width: 0.8"/>
      </g>
     </g>
     <g id="text_18">
      <!-- 1.2 -->
      <g transform="translate(24.816875 53.35671) scale(0.1 -0.1)">
       <use xlink:href="#DejaVuSans-31"/>
       <use xlink:href="#DejaVuSans-2e" transform="translate(63.623047 0)"/>
       <use xlink:href="#DejaVuSans-32" transform="translate(95.410156 0)"/>
      </g>
     </g>
    </g>
    <g id="text_19">
     <!-- Mean LLM - NIST -->
     <g transform="translate(18.737188 237.20115) rotate(-90) scale(0.1 -0.1)">
      <defs>
       <path id="DejaVuSans-4d" d="M 628 4666 
L 1569 4666 
L 2759 1491 
L 3956 4666 
L 4897 4666 
L 4897 0 
L 4281 0 
L 4281 4097 
L 3078 897 
L 2444 897 
L 1241 4097 
L 1241 0 
L 628 0 
L 628 4666 
z
" transform="scale(0.015625)"/>
       <path id="DejaVuSans-20" transform="scale(0.015625)"/>
       <path id="DejaVuSans-2d" d="M 313 2009 
L 1997 2009 
L 1997 1497 
L 313 1497 
L 313 2009 
z
" transform="scale(0.015625)"/>
       <path id="DejaVuSans-4e" d="M 628 4666 
L 1478 4666 
L 3547 763 
L 3547 4666 
L 4159 4666 
L 4159 0 
L 3309 0 
L 1241 3903 
L 1241 0 
L 628 0 
L 628 4666 
z
" transform="scale(0.015625)"/>
       <path id="DejaVuSans-49" d="M 628 4666 
L 1259 4666 
L 1259 0 
L 628 0 
L 628 4666 
z
" transform="scale(0.015625)"/>
       <path id="DejaVuSans-53" d="M 3425 4513 
L 3425 3897 
Q 3066 4069 2747 4153 
Q 2428 4238 2131 4238 
Q 1616 4238 1336 4038 
Q 1056 3838 1056 3469 
Q 1056 3159 1242 3001 
Q 1428 2844 1947 2747 
L 2328 2669 
Q 3034 2534 3370 2195 
Q 3706 1856 3706 1288 
Q 3706 609 3251 259 
Q 2797 -91 1919 -91 
Q 1588 -91 1214 -16 
Q 841 59 441 206 
L 441 856 
Q 825 641 1194 531 
Q 1563 422 1919 422 
Q 2459 422 2753 634 
Q 3047 847 3047 1241 
Q 3047 1584 2836 1778 
Q 2625 1972 2144 2069 
L 1759 2144 
Q 1053 2284 737 2584 
Q 422 2884 422 3419 
Q 422 4038 858 4394 
Q 1294 4750 2059 4750 
Q 2388 4750 2728 4690 
Q 3069 4631 3425 4513 
z
" transform="scale(0.015625)"/>
       <path id="DejaVuSans-54" d="M -19 4666 
L 3928 4666 
L 3928 4134 
L 2272 4134 
L 2272 0 
L 1638 0 
L 1638 4134 
L -19 4134 
L -19 4666 
z
" transform="scale(0.015625)"/>
      </defs>
      <use xlink:href="#DejaVuSans-4d"/>
      <use xlink:href="#DejaVuSans-65" transform="translate(86.279297 0)"/>
      <use xlink:href="#DejaVuSans-61" transform="translate(147.802734 0)"/>
      <use xlink:href="#DejaVuSans-6e" transform="translate(209.082031 0)"/>
      <use xlink:href="#DejaVuSans-20" transform="translate(272.460938 0)"/>
      <use xlink:href="#DejaVuSans-4c" transform="translate(304.248047 0)"/>
      <use xlink:href="#DejaVuSans-4c" transform="translate(359.960938 0)"/>
      <use xlink:href="#DejaVuSans-4d" transform="translate(415.673828 0)"/>
      <use xlink:href="#DejaVuSans-20" transform="translate(501.953125 0)"/>
      <use xlink:href="#DejaVuSans-2d" transform="translate(533.740234 0)"/>
      <use xlink:href="#DejaVuSans-20" transform="translate(569.824219 0)"/>
      <use xlink:href="#DejaVuSans-4e" transform="translate(601.611328 0)"/>
      <use xlink:href="#DejaVuSans-49" transform="translate(676.416016 0)"/>
      <use xlink:href="#DejaVuSans-53" transform="translate(705.908203 0)"/>
      <use xlink:href="#DejaVuSans-54" transform="translate(769.384766 0)"/>
     </g>
    </g>
   </g>
   <g id="patch_3">
    <path d="M 69.018058 364.473863 
L 91.735987 364.473863 
L 91.735987 227.594371 
L 69.018058 227.594371 
z
" clip-path="url(#pf19172d2fc)" style="fill: #1f77b4; stroke: #000000; stroke-linejoin: miter"/>
   </g>
   <g id="patch_4">
    <path d="M 154.210291 364.473863 
L 176.92822 364.473863 
L 176.92822 224.112622 
L 154.210291 224.112622 
z
" clip-path="url(#pf19172d2fc)" style="fill: #1f77b4; stroke: #000000; stroke-linejoin: miter"/>
   </g>
   <g id="patch_5">
    <path d="M 239.402524 364.473863 
L 262.120453 364.473863 
L 262.120453 190.38643 
L 239.402524 190.38643 
z
" clip-path="url(#pf19172d2fc)" style="fill: #1f77b4; stroke: #000000; stroke-linejoin: miter"/>
   </g>
   <g id="patch_6">
    <path d="M 324.594757 364.473863 
L 347.312686 364.473863 
L 347.312686 187.320412 
L 324.594757 187.320412 
z
" clip-path="url(#pf19172d2fc)" style="fill: #1f77b4; stroke: #000000; stroke-linejoin: miter"/>
   </g>
   <g id="patch_7">
    <path d="M 409.78699 364.473863 
L 432.504919 364.473863 
L 432.504919 189.035303 
L 409.78699 189.035303 
z
" clip-path="url(#pf19172d2fc)" style="fill: #1f77b4; stroke: #000000; stroke-linejoin: miter"/>
   </g>
   <g id="patch_8">
    <path d="M 494.979223 364.473863 
L 517.697152 364.473863 
L 517.697152 184.254395 
L 494.979223 184.254395 
z
" clip-path="url(#pf19172d2fc)" style="fill: #1f77b4; stroke: #000000; stroke-linejoin: miter"/>
   </g>
   <g id="patch_9">
    <path d="M 580.171456 364.473863 
L 602.889385 364.473863 
L 602.889385 205.768484 
L 580.171456 205.768484 
z
" clip-path="url(#pf19172d2fc)" style="fill: #1f77b4; stroke: #000000; stroke-linejoin: miter"/>
   </g>
   <g id="patch_10">
    <path d="M 665.363689 364.473863 
L 688.081618 364.473863 
L 688.081618 186.956648 
L 665.363689 186.956648 
z
" clip-path="url(#pf19172d2fc)" style="fill: #1f77b4; stroke: #000000; stroke-linejoin: miter"/>
   </g>
   <g id="patch_11">
    <path d="M 750.555922 364.473863 
L 773.273851 364.473863 
L 773.273851 193.244582 
L 750.555922 193.244582 
z
" clip-path="url(#pf19172d2fc)" style="fill: #1f77b4; stroke: #000000; stroke-linejoin: miter"/>
   </g>
   <g id="patch_12">
    <path d="M 835.748155 364.473863 
L 858.466084 364.473863 
L 858.466084 188.463673 
L 835.748155 188.463673 
z
" clip-path="url(#pf19172d2fc)" style="fill: #1f77b4; stroke: #000000; stroke-linejoin: miter"/>
   </g>
   <g id="patch_13">
    <path d="M 91.735987 364.473863 
L 114.453916 364.473863 
L 114.453916 168.301226 
L 91.735987 168.301226 
z
" clip-path="url(#pf19172d2fc)" style="fill: #ff7f0e; stroke: #000000; stroke-linejoin: miter"/>
   </g>
   <g id="patch_14">
    <path d="M 176.92822 364.473863 
L 199.646149 364.473863 
L 199.646149 116.542178 
L 176.92822 116.542178 
z
" clip-path="url(#pf19172d2fc)" style="fill: #ff7f0e; stroke: #000000; stroke-linejoin: miter"/>
   </g>
   <g id="patch_15">
    <path d="M 262.120453 364.473863 
L 284.838382 364.473863 
L 284.838382 137.304701 
L 262.120453 137.304701 
z
" clip-path="url(#pf19172d2fc)" style="fill: #ff7f0e; stroke: #000000; stroke-linejoin: miter"/>
   </g>
   <g id="patch_16">
    <path d="M 347.312686 364.473863 
L 370.030615 364.473863 
L 370.030615 113.478017 
L 347.312686 113.478017 
z
" clip-path="url(#pf19172d2fc)" style="fill: #ff7f0e; stroke: #000000; stroke-linejoin: miter"/>
   </g>
   <g id="patch_17">
    <path d="M 432.504919 364.473863 
L 455.222848 364.473863 
L 455.222848 145.885953 
L 432.504919 145.885953 
z
" clip-path="url(#pf19172d2fc)" style="fill: #ff7f0e; stroke: #000000; stroke-linejoin: miter"/>
   </g>
   <g id="patch_18">
    <path d="M 517.697152 364.473863 
L 540.415081 364.473863 
L 540.415081 117.539438 
L 517.697152 117.539438 
z
" clip-path="url(#pf19172d2fc)" style="fill: #ff7f0e; stroke: #000000; stroke-linejoin: miter"/>
   </g>
   <g id="patch_19">
    <path d="M 602.889385 364.473863 
L 625.607314 364.473863 
L 625.607314 120.558256 
L 602.889385 120.558256 
z
" clip-path="url(#pf19172d2fc)" style="fill: #ff7f0e; stroke: #000000; stroke-linejoin: miter"/>
   </g>
   <g id="patch_20">
    <path d="M 688.081618 364.473863 
L 710.799547 364.473863 
L 710.799547 90.351114 
L 688.081618 90.351114 
z
" clip-path="url(#pf19172d2fc)" style="fill: #ff7f0e; stroke: #000000; stroke-linejoin: miter"/>
   </g>
   <g id="patch_21">
    <path d="M 773.273851 364.473863 
L 795.99178 364.473863 
L 795.99178 137.304701 
L 773.273851 137.304701 
z
" clip-path="url(#pf19172d2fc)" style="fill: #ff7f0e; stroke: #000000; stroke-linejoin: miter"/>
   </g>
   <g id="patch_22">
    <path d="M 858.466084 364.473863 
L 881.184013 364.473863 
L 881.184013 99.601132 
L 858.466084 99.601132 
z
" clip-path="url(#pf19172d2fc)" style="fill: #ff7f0e; stroke: #000000; stroke-linejoin: miter"/>
   </g>
   <g id="patch_23">
    <path d="M 114.453916 364.473863 
L 137.171845 364.473863 
L 137.171845 168.664475 
L 114.453916 168.664475 
z
" clip-path="url(#pf19172d2fc)" style="fill: #2ca02c; stroke: #000000; stroke-linejoin: miter"/>
   </g>
   <g id="patch_24">
    <path d="M 199.646149 364.473863 
L 222.364078 364.473863 
L 222.364078 145.435496 
L 199.646149 145.435496 
z
" clip-path="url(#pf19172d2fc)" style="fill: #2ca02c; stroke: #000000; stroke-linejoin: miter"/>
   </g>
   <g id="patch_25">
    <path d="M 284.838382 364.473863 
L 307.556311 364.473863 
L 307.556311 127.455122 
L 284.838382 127.455122 
z
" clip-path="url(#pf19172d2fc)" style="fill: #2ca02c; stroke: #000000; stroke-linejoin: miter"/>
   </g>
   <g id="patch_26">
    <path d="M 370.030615 364.473863 
L 392.748544 364.473863 
L 392.748544 102.823049 
L 370.030615 102.823049 
z
" clip-path="url(#pf19172d2fc)" style="fill: #2ca02c; stroke: #000000; stroke-linejoin: miter"/>
   </g>
   <g id="patch_27">
    <path d="M 455.222848 364.473863 
L 477.940777 364.473863 
L 477.940777 141.226217 
L 455.222848 141.226217 
z
" clip-path="url(#pf19172d2fc)" style="fill: #2ca02c; stroke: #000000; stroke-linejoin: miter"/>
   </g>
   <g id="patch_28">
    <path d="M 540.415081 364.473863 
L 563.13301 364.473863 
L 563.13301 121.115221 
L 540.415081 121.115221 
z
" clip-path="url(#pf19172d2fc)" style="fill: #2ca02c; stroke: #000000; stroke-linejoin: miter"/>
   </g>
   <g id="patch_29">
    <path d="M 625.607314 364.473863 
L 648.325243 364.473863 
L 648.325243 114.359589 
L 625.607314 114.359589 
z
" clip-path="url(#pf19172d2fc)" style="fill: #2ca02c; stroke: #000000; stroke-linejoin: miter"/>
   </g>
   <g id="patch_30">
    <path d="M 710.799547 364.473863 
L 733.517476 364.473863 
L 733.517476 46.387541 
L 710.799547 46.387541 
z
" clip-path="url(#pf19172d2fc)" style="fill: #2ca02c; stroke: #000000; stroke-linejoin: miter"/>
   </g>
   <g id="patch_31">
    <path d="M 795.99178 364.473863 
L 818.709709 364.473863 
L 818.709709 130.832938 
L 795.99178 130.832938 
z
" clip-path="url(#pf19172d2fc)" style="fill: #2ca02c; stroke: #000000; stroke-linejoin: miter"/>
   </g>
   <g id="patch_32">
    <path d="M 881.184013 364.473863 
L 903.901942 364.473863 
L 903.901942 113.372228 
L 881.184013 113.372228 
z
" clip-path="url(#pf19172d2fc)" style="fill: #2ca02c; stroke: #000000; stroke-linejoin: miter"/>
   </g>
   <g id="LineCollection_1">
    <path d="M 80.377023 231.136889 
L 80.377023 224.051852 
" clip-path="url(#pf19172d2fc)" style="fill: none; stroke: #000000; stroke-width: 1.5"/>
    <path d="M 165.569256 227.645298 
L 165.569256 220.579946 
" clip-path="url(#pf19172d2fc)" style="fill: none; stroke: #000000; stroke-width: 1.5"/>
    <path d="M 250.761489 193.882737 
L 250.761489 186.890123 
" clip-path="url(#pf19172d2fc)" style="fill: none; stroke: #000000; stroke-width: 1.5"/>
    <path d="M 335.953722 190.939721 
L 335.953722 183.701104 
" clip-path="url(#pf19172d2fc)" style="fill: none; stroke: #000000; stroke-width: 1.5"/>
    <path d="M 421.145955 192.575895 
L 421.145955 185.494712 
" clip-path="url(#pf19172d2fc)" style="fill: none; stroke: #000000; stroke-width: 1.5"/>
    <path d="M 506.338188 187.880657 
L 506.338188 180.628132 
" clip-path="url(#pf19172d2fc)" style="fill: none; stroke: #000000; stroke-width: 1.5"/>
    <path d="M 591.530421 209.340969 
L 591.530421 202.195998 
" clip-path="url(#pf19172d2fc)" style="fill: none; stroke: #000000; stroke-width: 1.5"/>
    <path d="M 676.722654 190.67372 
L 676.722654 183.239575 
" clip-path="url(#pf19172d2fc)" style="fill: none; stroke: #000000; stroke-width: 1.5"/>
    <path d="M 761.914887 196.786698 
L 761.914887 189.702465 
" clip-path="url(#pf19172d2fc)" style="fill: none; stroke: #000000; stroke-width: 1.5"/>
    <path d="M 847.10712 192.070874 
L 847.10712 184.856473 
" clip-path="url(#pf19172d2fc)" style="fill: none; stroke: #000000; stroke-width: 1.5"/>
   </g>
   <g id="line2d_25">
    <defs>
     <path id="ma5eb3c12a5" d="M 3 0 
L -3 -0 
" style="stroke: #000000"/>
    </defs>
    <g clip-path="url(#pf19172d2fc)">
     <use xlink:href="#ma5eb3c12a5" x="80.377023" y="231.136889" style="fill: #1f77b4; stroke: #000000"/>
     <use xlink:href="#ma5eb3c12a5" x="165.569256" y="227.645298" style="fill: #1f77b4; stroke: #000000"/>
     <use xlink:href="#ma5eb3c12a5" x="250.761489" y="193.882737" style="fill: #1f77b4; stroke: #000000"/>
     <use xlink:href="#ma5eb3c12a5" x="335.953722" y="190.939721" style="fill: #1f77b4; stroke: #000000"/>
     <use xlink:href="#ma5eb3c12a5" x="421.145955" y="192.575895" style="fill: #1f77b4; stroke: #000000"/>
     <use xlink:href="#ma5eb3c12a5" x="506.338188" y="187.880657" style="fill: #1f77b4; stroke: #000000"/>
     <use xlink:href="#ma5eb3c12a5" x="591.530421" y="209.340969" style="fill: #1f77b4; stroke: #000000"/>
     <use xlink:href="#ma5eb3c12a5" x="676.722654" y="190.67372" style="fill: #1f77b4; stroke: #000000"/>
     <use xlink:href="#ma5eb3c12a5" x="761.914887" y="196.786698" style="fill: #1f77b4; stroke: #000000"/>
     <use xlink:href="#ma5eb3c12a5" x="847.10712" y="192.070874" style="fill: #1f77b4; stroke: #000000"/>
    </g>
   </g>
   <g id="line2d_26">
    <g clip-path="url(#pf19172d2fc)">
     <use xlink:href="#ma5eb3c12a5" x="80.377023" y="224.051852" style="fill: #1f77b4; stroke: #000000"/>
     <use xlink:href="#ma5eb3c12a5" x="165.569256" y="220.579946" style="fill: #1f77b4; stroke: #000000"/>
     <use xlink:href="#ma5eb3c12a5" x="250.761489" y="186.890123" style="fill: #1f77b4; stroke: #000000"/>
     <use xlink:href="#ma5eb3c12a5" x="335.953722" y="183.701104" style="fill: #1f77b4; stroke: #000000"/>
     <use xlink:href="#ma5eb3c12a5" x="421.145955" y="185.494712" style="fill: #1f77b4; stroke: #000000"/>
     <use xlink:href="#ma5eb3c12a5" x="506.338188" y="180.628132" style="fill: #1f77b4; stroke: #000000"/>
     <use xlink:href="#ma5eb3c12a5" x="591.530421" y="202.195998" style="fill: #1f77b4; stroke: #000000"/>
     <use xlink:href="#ma5eb3c12a5" x="676.722654" y="183.239575" style="fill: #1f77b4; stroke: #000000"/>
     <use xlink:href="#ma5eb3c12a5" x="761.914887" y="189.702465" style="fill: #1f77b4; stroke: #000000"/>
     <use xlink:href="#ma5eb3c12a5" x="847.10712" y="184.856473" style="fill: #1f77b4; stroke: #000000"/>
    </g>
   </g>
   <g id="LineCollection_2">
    <path d="M 103.094951 172.056367 
L 103.094951 164.546084 
" clip-path="url(#pf19172d2fc)" style="fill: none; stroke: #000000; stroke-width: 1.5"/>
    <path d="M 188.287184 120.087531 
L 188.287184 112.996825 
" clip-path="url(#pf19172d2fc)" style="fill: none; stroke: #000000; stroke-width: 1.5"/>
    <path d="M 273.479417 141.03039 
L 273.479417 133.579012 
" clip-path="url(#pf19172d2fc)" style="fill: none; stroke: #000000; stroke-width: 1.5"/>
    <path d="M 358.67165 117.413961 
L 358.67165 109.542072 
" clip-path="url(#pf19172d2fc)" style="fill: none; stroke: #000000; stroke-width: 1.5"/>
    <path d="M 443.863883 149.638148 
L 443.863883 142.133759 
" clip-path="url(#pf19172d2fc)" style="fill: none; stroke: #000000; stroke-width: 1.5"/>
    <path d="M 529.056117 121.502243 
L 529.056117 113.576633 
" clip-path="url(#pf19172d2fc)" style="fill: none; stroke: #000000; stroke-width: 1.5"/>
    <path d="M 614.24835 124.289743 
L 614.24835 116.826769 
" clip-path="url(#pf19172d2fc)" style="fill: none; stroke: #000000; stroke-width: 1.5"/>
    <path d="M 699.440583 93.890134 
L 699.440583 86.812094 
" clip-path="url(#pf19172d2fc)" style="fill: none; stroke: #000000; stroke-width: 1.5"/>
    <path d="M 784.632816 141.028211 
L 784.632816 133.581191 
" clip-path="url(#pf19172d2fc)" style="fill: none; stroke: #000000; stroke-width: 1.5"/>
    <path d="M 869.825049 103.184744 
L 869.825049 96.017521 
" clip-path="url(#pf19172d2fc)" style="fill: none; stroke: #000000; stroke-width: 1.5"/>
   </g>
   <g id="line2d_27">
    <g clip-path="url(#pf19172d2fc)">
     <use xlink:href="#ma5eb3c12a5" x="103.094951" y="172.056367" style="fill: #1f77b4; stroke: #000000"/>
     <use xlink:href="#ma5eb3c12a5" x="188.287184" y="120.087531" style="fill: #1f77b4; stroke: #000000"/>
     <use xlink:href="#ma5eb3c12a5" x="273.479417" y="141.03039" style="fill: #1f77b4; stroke: #000000"/>
     <use xlink:href="#ma5eb3c12a5" x="358.67165" y="117.413961" style="fill: #1f77b4; stroke: #000000"/>
     <use xlink:href="#ma5eb3c12a5" x="443.863883" y="149.638148" style="fill: #1f77b4; stroke: #000000"/>
     <use xlink:href="#ma5eb3c12a5" x="529.056117" y="121.502243" style="fill: #1f77b4; stroke: #000000"/>
     <use xlink:href="#ma5eb3c12a5" x="614.24835" y="124.289743" style="fill: #1f77b4; stroke: #000000"/>
     <use xlink:href="#ma5eb3c12a5" x="699.440583" y="93.890134" style="fill: #1f77b4; stroke: #000000"/>
     <use xlink:href="#ma5eb3c12a5" x="784.632816" y="141.028211" style="fill: #1f77b4; stroke: #000000"/>
     <use xlink:href="#ma5eb3c12a5" x="869.825049" y="103.184744" style="fill: #1f77b4; stroke: #000000"/>
    </g>
   </g>
   <g id="line2d_28">
    <g clip-path="url(#pf19172d2fc)">
     <use xlink:href="#ma5eb3c12a5" x="103.094951" y="164.546084" style="fill: #1f77b4; stroke: #000000"/>
     <use xlink:href="#ma5eb3c12a5" x="188.287184" y="112.996825" style="fill: #1f77b4; stroke: #000000"/>
     <use xlink:href="#ma5eb3c12a5" x="273.479417" y="133.579012" style="fill: #1f77b4; stroke: #000000"/>
     <use xlink:href="#ma5eb3c12a5" x="358.67165" y="109.542072" style="fill: #1f77b4; stroke: #000000"/>
     <use xlink:href="#ma5eb3c12a5" x="443.863883" y="142.133759" style="fill: #1f77b4; stroke: #000000"/>
     <use xlink:href="#ma5eb3c12a5" x="529.056117" y="113.576633" style="fill: #1f77b4; stroke: #000000"/>
     <use xlink:href="#ma5eb3c12a5" x="614.24835" y="116.826769" style="fill: #1f77b4; stroke: #000000"/>
     <use xlink:href="#ma5eb3c12a5" x="699.440583" y="86.812094" style="fill: #1f77b4; stroke: #000000"/>
     <use xlink:href="#ma5eb3c12a5" x="784.632816" y="133.581191" style="fill: #1f77b4; stroke: #000000"/>
     <use xlink:href="#ma5eb3c12a5" x="869.825049" y="96.017521" style="fill: #1f77b4; stroke: #000000"/>
    </g>
   </g>
   <g id="LineCollection_3">
    <path d="M 125.81288 172.07111 
L 125.81288 165.257841 
" clip-path="url(#pf19172d2fc)" style="fill: none; stroke: #000000; stroke-width: 1.5"/>
    <path d="M 211.005113 148.77987 
L 211.005113 142.091121 
" clip-path="url(#pf19172d2fc)" style="fill: none; stroke: #000000; stroke-width: 1.5"/>
    <path d="M 296.197346 130.773841 
L 296.197346 124.136402 
" clip-path="url(#pf19172d2fc)" style="fill: none; stroke: #000000; stroke-width: 1.5"/>
    <path d="M 381.389579 106.219522 
L 381.389579 99.426576 
" clip-path="url(#pf19172d2fc)" style="fill: none; stroke: #000000; stroke-width: 1.5"/>
    <path d="M 466.581812 144.61332 
L 466.581812 137.839115 
" clip-path="url(#pf19172d2fc)" style="fill: none; stroke: #000000; stroke-width: 1.5"/>
    <path d="M 551.774045 124.50109 
L 551.774045 117.729352 
" clip-path="url(#pf19172d2fc)" style="fill: none; stroke: #000000; stroke-width: 1.5"/>
    <path d="M 636.966278 117.71724 
L 636.966278 111.001939 
" clip-path="url(#pf19172d2fc)" style="fill: none; stroke: #000000; stroke-width: 1.5"/>
    <path d="M 722.158511 49.819183 
L 722.158511 42.955898 
" clip-path="url(#pf19172d2fc)" style="fill: none; stroke: #000000; stroke-width: 1.5"/>
    <path d="M 807.350744 134.166913 
L 807.350744 127.498962 
" clip-path="url(#pf19172d2fc)" style="fill: none; stroke: #000000; stroke-width: 1.5"/>
    <path d="M 892.542977 116.743811 
L 892.542977 110.000645 
" clip-path="url(#pf19172d2fc)" style="fill: none; stroke: #000000; stroke-width: 1.5"/>
   </g>
   <g id="line2d_29">
    <g clip-path="url(#pf19172d2fc)">
     <use xlink:href="#ma5eb3c12a5" x="125.81288" y="172.07111" style="fill: #1f77b4; stroke: #000000"/>
     <use xlink:href="#ma5eb3c12a5" x="211.005113" y="148.77987" style="fill: #1f77b4; stroke: #000000"/>
     <use xlink:href="#ma5eb3c12a5" x="296.197346" y="130.773841" style="fill: #1f77b4; stroke: #000000"/>
     <use xlink:href="#ma5eb3c12a5" x="381.389579" y="106.219522" style="fill: #1f77b4; stroke: #000000"/>
     <use xlink:href="#ma5eb3c12a5" x="466.581812" y="144.61332" style="fill: #1f77b4; stroke: #000000"/>
     <use xlink:href="#ma5eb3c12a5" x="551.774045" y="124.50109" style="fill: #1f77b4; stroke: #000000"/>
     <use xlink:href="#ma5eb3c12a5" x="636.966278" y="117.71724" style="fill: #1f77b4; stroke: #000000"/>
     <use xlink:href="#ma5eb3c12a5" x="722.158511" y="49.819183" style="fill: #1f77b4; stroke: #000000"/>
     <use xlink:href="#ma5eb3c12a5" x="807.350744" y="134.166913" style="fill: #1f77b4; stroke: #000000"/>
     <use xlink:href="#ma5eb3c12a5" x="892.542977" y="116.743811" style="fill: #1f77b4; stroke: #000000"/>
    </g>
   </g>
   <g id="line2d_30">
    <g clip-path="url(#pf19172d2fc)">
     <use xlink:href="#ma5eb3c12a5" x="125.81288" y="165.257841" style="fill: #1f77b4; stroke: #000000"/>
     <use xlink:href="#ma5eb3c12a5" x="211.005113" y="142.091121" style="fill: #1f77b4; stroke: #000000"/>
     <use xlink:href="#ma5eb3c12a5" x="296.197346" y="124.136402" style="fill: #1f77b4; stroke: #000000"/>
     <use xlink:href="#ma5eb3c12a5" x="381.389579" y="99.426576" style="fill: #1f77b4; stroke: #000000"/>
     <use xlink:href="#ma5eb3c12a5" x="466.581812" y="137.839115" style="fill: #1f77b4; stroke: #000000"/>
     <use xlink:href="#ma5eb3c12a5" x="551.774045" y="117.729352" style="fill: #1f77b4; stroke: #000000"/>
     <use xlink:href="#ma5eb3c12a5" x="636.966278" y="111.001939" style="fill: #1f77b4; stroke: #000000"/>
     <use xlink:href="#ma5eb3c12a5" x="722.158511" y="42.955898" style="fill: #1f77b4; stroke: #000000"/>
     <use xlink:href="#ma5eb3c12a5" x="807.350744" y="127.498962" style="fill: #1f77b4; stroke: #000000"/>
     <use xlink:href="#ma5eb3c12a5" x="892.542977" y="110.000645" style="fill: #1f77b4; stroke: #000000"/>
    </g>
   </g>
   <g id="patch_33">
    <path d="M 47.72 364.473863 
L 47.72 26.88 
" style="fill: none; stroke: #000000; stroke-width: 0.8; stroke-linejoin: miter; stroke-linecap: square"/>
   </g>
   <g id="patch_34">
    <path d="M 925.2 364.473863 
L 925.2 26.88 
" style="fill: none; stroke: #000000; stroke-width: 0.8; stroke-linejoin: miter; stroke-linecap: square"/>
   </g>
   <g id="patch_35">
    <path d="M 47.72 364.473863 
L 925.2 364.473863 
" style="fill: none; stroke: #000000; stroke-width: 0.8; stroke-linejoin: miter; stroke-linecap: square"/>
   </g>
   <g id="patch_36">
    <path d="M 47.72 26.88 
L 925.2 26.88 
" style="fill: none; stroke: #000000; stroke-width: 0.8; stroke-linejoin: miter; stroke-linecap: square"/>
   </g>
   <g id="text_20">
    <!-- Mean relevance inflation grouped by language, 2021–2022 -->
    <g transform="translate(309.181563 20.88) scale(0.12 -0.12)">
     <defs>
      <path id="DejaVuSans-6c" d="M 603 4863 
L 1178 4863 
L 1178 0 
L 603 0 
L 603 4863 
z
" transform="scale(0.015625)"/>
      <path id="DejaVuSans-66" d="M 2375 4863 
L 2375 4384 
L 1825 4384 
Q 1516 4384 1395 4259 
Q 1275 4134 1275 3809 
L 1275 3500 
L 2222 3500 
L 2222 3053 
L 1275 3053 
L 1275 0 
L 697 0 
L 697 3053 
L 147 3053 
L 147 3500 
L 697 3500 
L 697 3744 
Q 697 4328 969 4595 
Q 1241 4863 1831 4863 
L 2375 4863 
z
" transform="scale(0.015625)"/>
      <path id="DejaVuSans-6f" d="M 1959 3097 
Q 1497 3097 1228 2736 
Q 959 2375 959 1747 
Q 959 1119 1226 758 
Q 1494 397 1959 397 
Q 2419 397 2687 759 
Q 2956 1122 2956 1747 
Q 2956 2369 2687 2733 
Q 2419 3097 1959 3097 
z
M 1959 3584 
Q 2709 3584 3137 3096 
Q 3566 2609 3566 1747 
Q 3566 888 3137 398 
Q 2709 -91 1959 -91 
Q 1206 -91 779 398 
Q 353 888 353 1747 
Q 353 2609 779 3096 
Q 1206 3584 1959 3584 
z
" transform="scale(0.015625)"/>
      <path id="DejaVuSans-70" d="M 1159 525 
L 1159 -1331 
L 581 -1331 
L 581 3500 
L 1159 3500 
L 1159 2969 
Q 1341 3281 1617 3432 
Q 1894 3584 2278 3584 
Q 2916 3584 3314 3078 
Q 3713 2572 3713 1747 
Q 3713 922 3314 415 
Q 2916 -91 2278 -91 
Q 1894 -91 1617 61 
Q 1341 213 1159 525 
z
M 3116 1747 
Q 3116 2381 2855 2742 
Q 2594 3103 2138 3103 
Q 1681 3103 1420 2742 
Q 1159 2381 1159 1747 
Q 1159 1113 1420 752 
Q 1681 391 2138 391 
Q 2594 391 2855 752 
Q 3116 1113 3116 1747 
z
" transform="scale(0.015625)"/>
      <path id="DejaVuSans-64" d="M 2906 2969 
L 2906 4863 
L 3481 4863 
L 3481 0 
L 2906 0 
L 2906 525 
Q 2725 213 2448 61 
Q 2172 -91 1784 -91 
Q 1150 -91 751 415 
Q 353 922 353 1747 
Q 353 2572 751 3078 
Q 1150 3584 1784 3584 
Q 2172 3584 2448 3432 
Q 2725 3281 2906 2969 
z
M 947 1747 
Q 947 1113 1208 752 
Q 1469 391 1925 391 
Q 2381 391 2643 752 
Q 2906 1113 2906 1747 
Q 2906 2381 2643 2742 
Q 2381 3103 1925 3103 
Q 1469 3103 1208 2742 
Q 947 2381 947 1747 
z
" transform="scale(0.015625)"/>
      <path id="DejaVuSans-62" d="M 3116 1747 
Q 3116 2381 2855 2742 
Q 2594 3103 2138 3103 
Q 1681 3103 1420 2742 
Q 1159 2381 1159 1747 
Q 1159 1113 1420 752 
Q 1681 391 2138 391 
Q 2594 391 2855 752 
Q 3116 1113 3116 1747 
z
M 1159 2969 
Q 1341 3281 1617 3432 
Q 1894 3584 2278 3584 
Q 2916 3584 3314 3078 
Q 3713 2572 3713 1747 
Q 3713 922 3314 415 
Q 2916 -91 2278 -91 
Q 1894 -91 1617 61 
Q 1341 213 1159 525 
L 1159 0 
L 581 0 
L 581 4863 
L 1159 4863 
L 1159 2969 
z
" transform="scale(0.015625)"/>
      <path id="DejaVuSans-79" d="M 2059 -325 
Q 1816 -950 1584 -1140 
Q 1353 -1331 966 -1331 
L 506 -1331 
L 506 -850 
L 844 -850 
Q 1081 -850 1212 -737 
Q 1344 -625 1503 -206 
L 1606 56 
L 191 3500 
L 800 3500 
L 1894 763 
L 2988 3500 
L 3597 3500 
L 2059 -325 
z
" transform="scale(0.015625)"/>
      <path id="DejaVuSans-2c" d="M 750 794 
L 1409 794 
L 1409 256 
L 897 -744 
L 494 -744 
L 750 256 
L 750 794 
z
" transform="scale(0.015625)"/>
      <path id="DejaVuSans-2013" d="M 313 1978 
L 2888 1978 
L 2888 1528 
L 313 1528 
L 313 1978 
z
" transform="scale(0.015625)"/>
     </defs>
     <use xlink:href="#DejaVuSans-4d"/>
     <use xlink:href="#DejaVuSans-65" transform="translate(86.279297 0)"/>
     <use xlink:href="#DejaVuSans-61" transform="translate(147.802734 0)"/>
     <use xlink:href="#DejaVuSans-6e" transform="translate(209.082031 0)"/>
     <use xlink:href="#DejaVuSans-20" transform="translate(272.460938 0)"/>
     <use xlink:href="#DejaVuSans-72" transform="translate(304.248047 0)"/>
     <use xlink:href="#DejaVuSans-65" transform="translate(343.111328 0)"/>
     <use xlink:href="#DejaVuSans-6c" transform="translate(404.634766 0)"/>
     <use xlink:href="#DejaVuSans-65" transform="translate(432.417969 0)"/>
     <use xlink:href="#DejaVuSans-76" transform="translate(493.941406 0)"/>
     <use xlink:href="#DejaVuSans-61" transform="translate(553.121094 0)"/>
     <use xlink:href="#DejaVuSans-6e" transform="translate(614.400391 0)"/>
     <use xlink:href="#DejaVuSans-63" transform="translate(677.779297 0)"/>
     <use xlink:href="#DejaVuSans-65" transform="translate(732.759766 0)"/>
     <use xlink:href="#DejaVuSans-20" transform="translate(794.283203 0)"/>
     <use xlink:href="#DejaVuSans-69" transform="translate(826.070312 0)"/>
     <use xlink:href="#DejaVuSans-6e" transform="translate(853.853516 0)"/>
     <use xlink:href="#DejaVuSans-66" transform="translate(917.232422 0)"/>
     <use xlink:href="#DejaVuSans-6c" transform="translate(952.4375 0)"/>
     <use xlink:href="#DejaVuSans-61" transform="translate(980.220703 0)"/>
     <use xlink:href="#DejaVuSans-74" transform="translate(1041.5 0)"/>
     <use xlink:href="#DejaVuSans-69" transform="translate(1080.708984 0)"/>
     <use xlink:href="#DejaVuSans-6f" transform="translate(1108.492188 0)"/>
     <use xlink:href="#DejaVuSans-6e" transform="translate(1169.673828 0)"/>
     <use xlink:href="#DejaVuSans-20" transform="translate(1233.052734 0)"/>
     <use xlink:href="#DejaVuSans-67" transform="translate(1264.839844 0)"/>
     <use xlink:href="#DejaVuSans-72" transform="translate(1328.316406 0)"/>
     <use xlink:href="#DejaVuSans-6f" transform="translate(1367.179688 0)"/>
     <use xlink:href="#DejaVuSans-75" transform="translate(1428.361328 0)"/>
     <use xlink:href="#DejaVuSans-70" transform="translate(1491.740234 0)"/>
     <use xlink:href="#DejaVuSans-65" transform="translate(1555.216797 0)"/>
     <use xlink:href="#DejaVuSans-64" transform="translate(1616.740234 0)"/>
     <use xlink:href="#DejaVuSans-20" transform="translate(1680.216797 0)"/>
     <use xlink:href="#DejaVuSans-62" transform="translate(1712.003906 0)"/>
     <use xlink:href="#DejaVuSans-79" transform="translate(1775.480469 0)"/>
     <use xlink:href="#DejaVuSans-20" transform="translate(1834.660156 0)"/>
     <use xlink:href="#DejaVuSans-6c" transform="translate(1866.447266 0)"/>
     <use xlink:href="#DejaVuSans-61" transform="translate(1894.230469 0)"/>
     <use xlink:href="#DejaVuSans-6e" transform="translate(1955.509766 0)"/>
     <use xlink:href="#DejaVuSans-67" transform="translate(2018.888672 0)"/>
     <use xlink:href="#DejaVuSans-75" transform="translate(2082.365234 0)"/>
     <use xlink:href="#DejaVuSans-61" transform="translate(2145.744141 0)"/>
     <use xlink:href="#DejaVuSans-67" transform="translate(2207.023438 0)"/>
     <use xlink:href="#DejaVuSans-65" transform="translate(2270.5 0)"/>
     <use xlink:href="#DejaVuSans-2c" transform="translate(2332.023438 0)"/>
     <use xlink:href="#DejaVuSans-20" transform="translate(2363.810547 0)"/>
     <use xlink:href="#DejaVuSans-32" transform="translate(2395.597656 0)"/>
     <use xlink:href="#DejaVuSans-30" transform="translate(2459.220703 0)"/>
     <use xlink:href="#DejaVuSans-32" transform="translate(2522.84375 0)"/>
     <use xlink:href="#DejaVuSans-31" transform="translate(2586.466797 0)"/>
     <use xlink:href="#DejaVuSans-2013" transform="translate(2650.089844 0)"/>
     <use xlink:href="#DejaVuSans-32" transform="translate(2700.089844 0)"/>
     <use xlink:href="#DejaVuSans-30" transform="translate(2763.712891 0)"/>
     <use xlink:href="#DejaVuSans-32" transform="translate(2827.335938 0)"/>
     <use xlink:href="#DejaVuSans-32" transform="translate(2890.958984 0)"/>
    </g>
   </g>
   <g id="legend_1">
    <g id="patch_37">
     <path d="M 794.245313 93.5925 
L 918.2 93.5925 
Q 920.2 93.5925 920.2 91.5925 
L 920.2 33.88 
Q 920.2 31.88 918.2 31.88 
L 794.245313 31.88 
Q 792.245313 31.88 792.245313 33.88 
L 792.245313 91.5925 
Q 792.245313 93.5925 794.245313 93.5925 
z
" style="fill: #ffffff; opacity: 0.8; stroke: #cccccc; stroke-linejoin: miter"/>
    </g>
    <g id="text_21">
     <!-- Model -->
     <g transform="translate(841.209375 43.478437) scale(0.1 -0.1)">
      <use xlink:href="#DejaVuSans-4d"/>
      <use xlink:href="#DejaVuSans-6f" transform="translate(86.279297 0)"/>
      <use xlink:href="#DejaVuSans-64" transform="translate(147.460938 0)"/>
      <use xlink:href="#DejaVuSans-65" transform="translate(210.9375 0)"/>
      <use xlink:href="#DejaVuSans-6c" transform="translate(272.460938 0)"/>
     </g>
    </g>
    <g id="patch_38">
     <path d="M 796.245313 58.156563 
L 816.245313 58.156563 
L 816.245313 51.156563 
L 796.245313 51.156563 
z
" style="fill: #1f77b4; stroke: #000000; stroke-linejoin: miter"/>
    </g>
    <g id="text_22">
     <!-- gpt-oss-20b -->
     <g transform="translate(824.245313 58.156563) scale(0.1 -0.1)">
      <use xlink:href="#DejaVuSans-67"/>
      <use xlink:href="#DejaVuSans-70" transform="translate(63.476562 0)"/>
      <use xlink:href="#DejaVuSans-74" transform="translate(126.953125 0)"/>
      <use xlink:href="#DejaVuSans-2d" transform="translate(166.162109 0)"/>
      <use xlink:href="#DejaVuSans-6f" transform="translate(204.121094 0)"/>
      <use xlink:href="#DejaVuSans-73" transform="translate(265.302734 0)"/>
      <use xlink:href="#DejaVuSans-73" transform="translate(317.402344 0)"/>
      <use xlink:href="#DejaVuSans-2d" transform="translate(369.501953 0)"/>
      <use xlink:href="#DejaVuSans-32" transform="translate(405.585938 0)"/>
      <use xlink:href="#DejaVuSans-30" transform="translate(469.208984 0)"/>
      <use xlink:href="#DejaVuSans-62" transform="translate(532.832031 0)"/>
     </g>
    </g>
    <g id="patch_39">
     <path d="M 796.245313 72.834688 
L 816.245313 72.834688 
L 816.245313 65.834688 
L 796.245313 65.834688 
z
" style="fill: #ff7f0e; stroke: #000000; stroke-linejoin: miter"/>
    </g>
    <g id="text_23">
     <!-- llama3-8b-instruct -->
     <g transform="translate(824.245313 72.834688) scale(0.1 -0.1)">
      <defs>
       <path id="DejaVuSans-6d" d="M 3328 2828 
Q 3544 3216 3844 3400 
Q 4144 3584 4550 3584 
Q 5097 3584 5394 3201 
Q 5691 2819 5691 2113 
L 5691 0 
L 5113 0 
L 5113 2094 
Q 5113 2597 4934 2840 
Q 4756 3084 4391 3084 
Q 3944 3084 3684 2787 
Q 3425 2491 3425 1978 
L 3425 0 
L 2847 0 
L 2847 2094 
Q 2847 2600 2669 2842 
Q 2491 3084 2119 3084 
Q 1678 3084 1418 2786 
Q 1159 2488 1159 1978 
L 1159 0 
L 581 0 
L 581 3500 
L 1159 3500 
L 1159 2956 
Q 1356 3278 1631 3431 
Q 1906 3584 2284 3584 
Q 2666 3584 2933 3390 
Q 3200 3197 3328 2828 
z
" transform="scale(0.015625)"/>
       <path id="DejaVuSans-33" d="M 2597 2516 
Q 3050 2419 3304 2112 
Q 3559 1806 3559 1356 
Q 3559 666 3084 287 
Q 2609 -91 1734 -91 
Q 1441 -91 1130 -33 
Q 819 25 488 141 
L 488 750 
Q 750 597 1062 519 
Q 1375 441 1716 441 
Q 2309 441 2620 675 
Q 2931 909 2931 1356 
Q 2931 1769 2642 2001 
Q 2353 2234 1838 2234 
L 1294 2234 
L 1294 2753 
L 1863 2753 
Q 2328 2753 2575 2939 
Q 2822 3125 2822 3475 
Q 2822 3834 2567 4026 
Q 2313 4219 1838 4219 
Q 1578 4219 1281 4162 
Q 984 4106 628 3988 
L 628 4550 
Q 988 4650 1302 4700 
Q 1616 4750 1894 4750 
Q 2613 4750 3031 4423 
Q 3450 4097 3450 3541 
Q 3450 3153 3228 2886 
Q 3006 2619 2597 2516 
z
" transform="scale(0.015625)"/>
      </defs>
      <use xlink:href="#DejaVuSans-6c"/>
      <use xlink:href="#DejaVuSans-6c" transform="translate(27.783203 0)"/>
      <use xlink:href="#DejaVuSans-61" transform="translate(55.566406 0)"/>
      <use xlink:href="#DejaVuSans-6d" transform="translate(116.845703 0)"/>
      <use xlink:href="#DejaVuSans-61" transform="translate(214.257812 0)"/>
      <use xlink:href="#DejaVuSans-33" transform="translate(275.537109 0)"/>
      <use xlink:href="#DejaVuSans-2d" transform="translate(339.160156 0)"/>
      <use xlink:href="#DejaVuSans-38" transform="translate(375.244141 0)"/>
      <use xlink:href="#DejaVuSans-62" transform="translate(438.867188 0)"/>
      <use xlink:href="#DejaVuSans-2d" transform="translate(502.34375 0)"/>
      <use xlink:href="#DejaVuSans-69" transform="translate(538.427734 0)"/>
      <use xlink:href="#DejaVuSans-6e" transform="translate(566.210938 0)"/>
      <use xlink:href="#DejaVuSans-73" transform="translate(629.589844 0)"/>
      <use xlink:href="#DejaVuSans-74" transform="translate(681.689453 0)"/>
      <use xlink:href="#DejaVuSans-72" transform="translate(720.898438 0)"/>
      <use xlink:href="#DejaVuSans-75" transform="translate(762.011719 0)"/>
      <use xlink:href="#DejaVuSans-63" transform="translate(825.390625 0)"/>
      <use xlink:href="#DejaVuSans-74" transform="translate(880.371094 0)"/>
     </g>
    </g>
    <g id="patch_40">
     <path d="M 796.245313 87.512812 
L 816.245313 87.512812 
L 816.245313 80.512812 
L 796.245313 80.512812 
z
" style="fill: #2ca02c; stroke: #000000; stroke-linejoin: miter"/>
    </g>
    <g id="text_24">
     <!-- qwen3-32b-v1 -->
     <g transform="translate(824.245313 87.512812) scale(0.1 -0.1)">
      <defs>
       <path id="DejaVuSans-71" d="M 947 1747 
Q 947 1113 1208 752 
Q 1469 391 1925 391 
Q 2381 391 2643 752 
Q 2906 1113 2906 1747 
Q 2906 2381 2643 2742 
Q 2381 3103 1925 3103 
Q 1469 3103 1208 2742 
Q 947 2381 947 1747 
z
M 2906 525 
Q 2725 213 2448 61 
Q 2172 -91 1784 -91 
Q 1150 -91 751 415 
Q 353 922 353 1747 
Q 353 2572 751 3078 
Q 1150 3584 1784 3584 
Q 2172 3584 2448 3432 
Q 2725 3281 2906 2969 
L 2906 3500 
L 3481 3500 
L 3481 -1331 
L 2906 -1331 
L 2906 525 
z
" transform="scale(0.015625)"/>
      </defs>
      <use xlink:href="#DejaVuSans-71"/>
      <use xlink:href="#DejaVuSans-77" transform="translate(63.476562 0)"/>
      <use xlink:href="#DejaVuSans-65" transform="translate(145.263672 0)"/>
      <use xlink:href="#DejaVuSans-6e" transform="translate(206.787109 0)"/>
      <use xlink:href="#DejaVuSans-33" transform="translate(270.166016 0)"/>
      <use xlink:href="#DejaVuSans-2d" transform="translate(333.789062 0)"/>
      <use xlink:href="#DejaVuSans-33" transform="translate(369.873047 0)"/>
      <use xlink:href="#DejaVuSans-32" transform="translate(433.496094 0)"/>
      <use xlink:href="#DejaVuSans-62" transform="translate(497.119141 0)"/>
      <use xlink:href="#DejaVuSans-2d" transform="translate(560.595703 0)"/>
      <use xlink:href="#DejaVuSans-76" transform="translate(594.054688 0)"/>
      <use xlink:href="#DejaVuSans-31" transform="translate(653.234375 0)"/>
     </g>
    </g>
   </g>
  </g>
 </g>
 <defs>
  <clipPath id="pf19172d2fc">
   <rect x="47.72" y="26.88" width="877.48" height="337.593863"/>
  </clipPath>
 </defs>
</svg>
